:FULLY-SPECIFIED
:FORCE-ALL-JOINTS-BE-3DOF
:DEGREES
510
root -4.96062 15.0227 -42.4505 345.824 7.44859 328.343
lfemur -51.484 31.3164 -13.177
ltibia 70.995 0 0
lfoot -16.2417 29.7727 0
ltoes -3.89071 0 0
rfemur -23.4586 -18.7459 7.51066
rtibia 50.3358 0 0
rfoot -8.1237 -24.0827 0
rtoes 9.15515 0 0
lowerback 15.8833 0.969426 -5.56795
upperback -1.21448 0.606656 3.51007
thorax -10.3423 0.706796 6.88777
lowerneck 3.67388 -14.2737 -16.6935
upperneck 4.47478 -20.6915 18.2275
head 4.42573 -10.4094 7.08056
lclavicle 1.24131e-15 -2.15178e-14 0
lhumerus -0.539822 -67.2894 88.8994
lradius 83.6331 0 0
lwrist 15.6514 0 0
lhand -5.365 37.967 0
lfingers 7.12502 0 0
lthumb 20.4424 66.9074 0
rclavicle 1.24131e-15 -2.15178e-14 0
rhumerus 75.9249 34.0598 -14.9836
rradius 110.815 0 0
rwrist -22.0746 0 0
rhand -6.06593 -27.2238 0
rfingers 7.12502 0 0
rthumb 19.7139 -55.717 0
511
root -5.12047 15.0244 -42.5782 355.692 1.2175 336.984
lfemur -54.9235 34.8046 -12.8523
ltibia 71.8587 0 0
lfoot -15.6243 29.2859 0
ltoes -2.3261 0 0
rfemur -21.306 -20.3195 7.5415
rtibia 51.6131 0 0
rfoot -8.13936 -25.0494 0
rtoes 8.78766 0 0
lowerback 15.9656 1.16153 -5.26619
upperback -1.33133 0.896203 3.42356
thorax -10.5895 0.845181 6.5512
lowerneck 3.56768 -14.2844 -16.8637
upperneck 4.66962 -20.7527 18.484
head 4.55487 -10.4346 7.15781
lclavicle 1.23157e-15 -2.11002e-14 0
lhumerus 2.85275 -69.5068 88.0093
lradius 82.7899 0 0
lwrist 14.0927 0 0
lhand -5.49342 38.0527 0
lfingers 7.12502 0 0
lthumb 20.3191 67.0079 0
rclavicle 1.23157e-15 -2.11002e-14 0
rhumerus 79.4317 35.5157 -13.1629
rradius 111.888 0 0
rwrist -21.4542 0 0
rhand -8.01351 -27.5142 0
rfingers 7.12502 0 0
rthumb 17.8669 -56.4332 0
512
root -5.28031 15.026 -42.7058 366.203 -5.37375 346.2
lfemur -58.5915 38.4908 -12.5154
ltibia 72.8064 0 0
lfoot -14.97 28.7725 0
ltoes -0.667675 0 0
rfemur -19.0102 -21.9704 7.57277
rtibia 52.9234 0 0
rfoot -8.15009 -26.097 0
rtoes 8.40467 0 0
lowerback 16.0591 1.35909 -4.94483
upperback -1.45244 1.19516 3.33732
thorax -10.8503 0.987904 6.20118
lowerneck 3.45964 -14.2981 -17.0473
upperneck 4.87511 -20.8215 18.7612
head 4.69201 -10.4634 7.24165
lclavicle 1.19271e-15 -2.06736e-14 0
lhumerus 6.47275 -71.8747 87.0602
lradius 81.8909 0 0
lwrist 12.4266 0 0
lhand -5.62379 38.138 0
lfingers 7.12502 0 0
lthumb 20.194 67.1083 0
rclavicle 1.19271e-15 -2.06736e-14 0
rhumerus 83.1298 37.0775 -11.213
rradius 113.098 0 0
rwrist -20.8437 0 0
rhand -10.0387 -27.8129 0
rfingers 7.12502 0 0
rthumb 15.9464 -57.1765 0
513
root -5.3278 15.0064 -42.6951 366.153 -7.14316 346.942
lfemur -58.2894 38.6904 -12.3793
ltibia 72.5495 0 0
lfoot -14.8792 28.6966 0
ltoes -0.699541 0 0
rfemur -19.1168 -22.1353 7.4355
rtibia 53.2903 0 0
rfoot -8.17867 -25.7721 0
rtoes 8.34471 0 0
lowerback 16.0108 1.40965 -4.93136
upperback -1.47341 1.26201 3.29273
thorax -10.8597 1.01898 6.12673
lowerneck 3.39017 -14.2276 -17.0056
upperneck 4.91224 -20.7163 18.6365
head 4.68637 -10.4087 7.2018
lclavicle 2.58332e-15 -2.10984e-14 0
lhumerus 6.02656 -71.6397 87.1349
lradius 81.9874 0 0
lwrist 12.837 0 0
lhand -5.75113 38.2034 0
lfingers 7.12502 0 0
lthumb 20.0715 67.1846 0
rclavicle 2.58332e-15 -2.10984e-14 0
rhumerus 82.9377 36.9645 -11.4051
rradius 112.145 0 0
rwrist -20.2362 0 0
rhand -10.6387 -27.8375 0
rfingers 7.12502 0 0
rthumb 15.3746 -57.2995 0
514
root -5.37529 14.9868 -42.6845 366.107 -8.65353 347.577
lfemur -58.0266 38.8578 -12.2633
ltibia 72.3285 0 0
lfoot -14.8027 28.632 0
ltoes -0.728137 0 0
rfemur -19.2113 -22.2751 7.31895
rtibia 53.6041 0 0
rfoot -8.20312 -25.4928 0
rtoes 8.29324 0 0
lowerback 15.9695 1.45269 -4.92002
upperback -1.49118 1.3189 3.25466
thorax -10.8676 1.04542 6.06331
lowerneck 3.33078 -14.1672 -16.9696
upperneck 4.94359 -20.6261 18.5295
head 4.68132 -10.3618 7.16761
lclavicle 3.76545e-15 -2.14571e-14 0
lhumerus 5.64038 -71.4357 87.2001
lradius 82.071 0 0
lwrist 13.1907 0 0
lhand -5.86013 38.2594 0
lfingers 7.12502 0 0
lthumb 19.9666 67.25 0
rclavicle 3.76545e-15 -2.14571e-14 0
rhumerus 82.769 36.8663 -11.5718
rradius 111.328 0 0
rwrist -19.7164 0 0
rhand -11.1502 -27.8579 0
rfingers 7.12502 0 0
rthumb 14.8871 -57.4036 0
515
root -5.42277 14.9672 -42.6738 366.061 -9.92471 348.114
lfemur -57.7951 38.9923 -12.1657
ltibia 72.1393 0 0
lfoot -14.7401 28.5782 0
ltoes -0.75518 0 0
rfemur -19.2983 -22.3909 7.22217
rtibia 53.8692 0 0
rfoot -8.2238 -25.2535 0
rtoes 8.24934 0 0
lowerback 15.9348 1.48869 -4.91082
upperback -1.50588 1.36641 3.22261
thorax -10.8738 1.06749 6.01022
lowerneck 3.28062 -14.1158 -16.9386
upperneck 4.96923 -20.5492 18.4381
head 4.67657 -10.3218 7.13844
lclavicle 4.74989e-15 -2.17505e-14 0
lhumerus 5.30403 -71.2567 87.258
lradius 82.1443 0 0
lwrist 13.4953 0 0
lhand -5.95253 38.3072 0
lfingers 7.12502 0 0
lthumb 19.8777 67.3056 0
rclavicle 4.74989e-15 -2.17505e-14 0
rhumerus 82.6166 36.7797 -11.7176
rradius 110.632 0 0
rwrist -19.2763 0 0
rhand -11.5793 -27.8739 0
rfingers 7.12502 0 0
rthumb 14.4781 -57.4893 0
516
root -5.47026 14.9476 -42.6631 366.012 -10.9765 348.565
lfemur -57.5867 39.0932 -12.0852
ltibia 71.9772 0 0
lfoot -14.6915 28.5347 0
ltoes -0.782385 0 0
rfemur -19.3825 -22.4837 7.14423
rtibia 54.0902 0 0
rfoot -8.24107 -25.0489 0
rtoes 8.21206 0 0
lowerback 15.9061 1.5181 -4.90376
upperback -1.5176 1.40513 3.19607
thorax -10.8783 1.08546 5.96676
lowerneck 3.23882 -14.0724 -16.9117
upperneck 4.98925 -20.4841 18.3605
head 4.67184 -10.288 7.11367
lclavicle 5.54745e-15 -2.19797e-14 0
lhumerus 5.00736 -71.0967 87.3109
lradius 82.2097 0 0
lwrist 13.7586 0 0
lhand -6.03003 38.3475 0
lfingers 7.12502 0 0
lthumb 19.8031 67.3525 0
rclavicle 5.54745e-15 -2.19797e-14 0
rhumerus 82.4738 36.7017 -11.8474
rradius 110.043 0 0
rwrist -18.908 0 0
rhand -11.9323 -27.8851 0
rfingers 7.12502 0 0
rthumb 14.1417 -57.5573 0
517
root -5.51775 14.928 -42.6525 365.956 -11.8288 348.939
lfemur -57.3932 39.1598 -12.0203
ltibia 71.838 0 0
lfoot -14.6567 28.5007 0
ltoes -0.81147 0 0
rfemur -19.4686 -22.5543 7.0842
rtibia 54.2718 0 0
rfoot -8.2553 -24.8733 0
rtoes 8.18045 0 0
lowerback 15.8829 1.54139 -4.89885
upperback -1.52648 1.43565 3.17454
thorax -10.8811 1.09959 5.93221
lowerneck 3.20452 -14.036 -16.8881
upperneck 5.00372 -20.4292 18.2945
head 4.66683 -10.2595 7.09268
lclavicle 6.16893e-15 -2.21455e-14 0
lhumerus 4.74017 -70.9498 87.361
lradius 82.2694 0 0
lwrist 13.9885 0 0
lhand -6.09438 38.3815 0
lfingers 7.12502 0 0
lthumb 19.7411 67.392 0
rclavicle 6.16893e-15 -2.21455e-14 0
rhumerus 82.3336 36.6293 -11.9657
rradius 109.547 0 0
rwrist -18.6033 0 0
rhand -12.215 -27.8914 0
rfingers 7.12502 0 0
rthumb 13.872 -57.608 0
518
root -5.56524 14.9084 -42.6418 365.889 -12.5013 349.245
lfemur -57.2066 39.1914 -11.9696
ltibia 71.7171 0 0
lfoot -14.6355 28.4757 0
ltoes -0.84415 0 0
rfemur -19.561 -22.6039 7.04114
rtibia 54.4185 0 0
rfoot -8.26686 -24.7211 0
rtoes 8.15358 0 0
lowerback 15.8645 1.559 -4.89609
upperback -1.53261 1.45853 3.15752
thorax -10.882 1.11015 5.90587
lowerneck 3.17686 -14.0056 -16.867
upperneck 5.01272 -20.3827 18.2382
head 4.66126 -10.2356 7.07484
lclavicle 6.62512e-15 -2.22488e-14 0
lhumerus 4.4923 -70.8098 87.4104
lradius 82.326 0 0
lwrist 14.1928 0 0
lhand -6.14729 38.4101 0
lfingers 7.12502 0 0
lthumb 19.6902 67.425 0
rclavicle 6.62512e-15 -2.22488e-14 0
rhumerus 82.1892 36.5594 -12.0774
rradius 109.129 0 0
rwrist -18.3545 0 0
rhand -12.4338 -27.8924 0
rfingers 7.12502 0 0
rthumb 13.6633 -57.642 0
519
root -5.61272 14.8888 -42.6312 365.807 -13.014 349.495
lfemur -57.0187 39.1874 -11.9314
ltibia 71.6103 0 0
lfoot -14.6278 28.4591 0
ltoes -0.882141 0 0
rfemur -19.6645 -22.6334 7.01411
rtibia 54.5349 0 0
rfoot -8.27611 -24.587 0
rtoes 8.1305 0 0
lowerback 15.8505 1.57142 -4.89549
upperback -1.53612 1.47437 3.14451
thorax -10.881 1.11741 5.88704
lowerneck 3.15497 -13.9801 -16.8476
upperneck 5.01632 -20.3432 18.1896
head 4.65483 -10.2153 7.05953
lclavicle 6.92683e-15 -2.22905e-14 0
lhumerus 4.25358 -70.671 87.4616
lradius 82.3817 0 0
lwrist 14.3791 0 0
lhand -6.19049 38.4343 0
lfingers 7.12502 0 0
lthumb 19.6486 67.4527 0
rclavicle 6.92683e-15 -2.22905e-14 0
rhumerus 82.0338 36.489 -12.1872
rradius 108.775 0 0
rwrist -18.1533 0 0
rhand -12.5946 -27.8878 0
rfingers 7.12502 0 0
rthumb 13.5096 -57.6597 0
520
root -5.66021 14.8692 -42.6205 365.708 -13.3866 349.697
lfemur -56.8213 39.1469 -11.9045
ltibia 71.513 0 0
lfoot -14.6334 28.4503 0
ltoes -0.927162 0 0
rfemur -19.7838 -22.6438 7.00218
rtibia 54.6256 0 0
rfoot -8.28342 -24.4653 0
rtoes 8.11027 0 0
lowerback 15.8404 1.57909 -4.89706
upperback -1.53711 1.48375 3.13499
thorax -10.878 1.12162 5.87502
lowerneck 3.138 -13.9585 -16.8291
upperneck 5.01462 -20.3091 18.1468
head 4.64726 -10.1979 7.04612
lclavicle 7.08486e-15 -2.22717e-14 0
lhumerus 4.01383 -70.5272 87.5166
lradius 82.4391 0 0
lwrist 14.5554 0 0
lhand -6.2257 38.455 0
lfingers 7.12502 0 0
lthumb 19.6147 67.4763 0
rclavicle 7.08486e-15 -2.22717e-14 0
rhumerus 81.8605 36.4151 -12.2996
rradius 108.47 0 0
rwrist -17.9919 0 0
rhand -12.7036 -27.8774 0
rfingers 7.12502 0 0
rthumb 13.4053 -57.6618 0
